<svg width="109" height="109" viewBox="0 0 109 109" fill="none" xmlns="http://www.w3.org/2000/svg">
<foreignObject x="16.0902" y="19.7182" width="69.342" height="57.785"><div xmlns="http://www.w3.org/1999/xhtml" style="backdrop-filter:blur(3.85px);clip-path:url(#bgblur_0_1_5534_clip_path);height:100%;width:100%"></div></foreignObject><rect data-figma-bg-blur-radius="7.70467" x="23.7948" y="27.4229" width="53.9327" height="42.3757" rx="11.557" fill="url(#paint0_linear_1_5534)"/>
<foreignObject x="23.7948" y="31.2751" width="69.342" height="57.785"><div xmlns="http://www.w3.org/1999/xhtml" style="backdrop-filter:blur(3.85px);clip-path:url(#bgblur_1_1_5534_clip_path);height:100%;width:100%"></div></foreignObject><rect data-figma-bg-blur-radius="7.70467" x="31.68" y="39.1603" width="53.5716" height="42.0146" rx="11.3765" fill="#BFB5FF" fill-opacity="0.6" stroke="url(#paint1_linear_1_5534)" stroke-width="0.361074"/>
<path d="M74.2458 77.5032L42.1218 77.5032C39.4502 77.5032 38.1144 77.5032 37.5361 76.7663C37.3886 76.5784 37.2774 76.3648 37.2081 76.1363C36.936 75.2399 37.7021 74.1456 39.2341 71.9569L46.3395 61.8064C47.3791 60.3213 47.8988 59.5787 48.6263 59.415C48.8162 59.3722 49.0115 59.3585 49.2055 59.3743C49.9486 59.4348 50.5671 60.0974 51.804 61.4227L59.5359 69.7069C60.703 70.9573 61.2865 71.5826 61.9987 71.6596C62.1853 71.6798 62.3738 71.6726 62.5582 71.6383C63.2625 71.5073 63.7967 70.8394 64.8653 69.5038L67.2703 66.4975C68.4154 65.0661 68.9879 64.3504 69.7304 64.2364C69.9242 64.2067 70.1213 64.2067 70.315 64.2364C71.0575 64.3504 71.6301 65.0661 72.7752 66.4975L76.9982 71.7763C78.7869 74.0122 79.6813 75.1301 79.4349 76.0669C79.3724 76.3047 79.2649 76.5283 79.1183 76.7256C78.5407 77.5032 77.1091 77.5032 74.2458 77.5032Z" fill="url(#paint2_linear_1_5534)" fill-opacity="0.9"/>
<rect x="62.3182" y="46.6844" width="11.557" height="11.557" rx="5.7785" fill="url(#paint3_linear_1_5534)" fill-opacity="0.9"/>
<defs>
<clipPath id="bgblur_0_1_5534_clip_path" transform="translate(-16.0902 -19.7182)"><rect x="23.7948" y="27.4229" width="53.9327" height="42.3757" rx="11.557"/>
</clipPath><clipPath id="bgblur_1_1_5534_clip_path" transform="translate(-23.7948 -31.2751)"><rect x="31.68" y="39.1603" width="53.5716" height="42.0146" rx="11.3765"/>
</clipPath><linearGradient id="paint0_linear_1_5534" x1="39.3523" y1="36.6925" x2="78.1886" y2="53.6904" gradientUnits="userSpaceOnUse">
<stop stop-color="#917FFB"/>
<stop offset="1" stop-color="#3F2DAF"/>
</linearGradient>
<linearGradient id="paint1_linear_1_5534" x1="27.6471" y1="42.8321" x2="95.063" y2="87.134" gradientUnits="userSpaceOnUse">
<stop stop-color="white"/>
<stop offset="1" stop-color="white" stop-opacity="0"/>
</linearGradient>
<linearGradient id="paint2_linear_1_5534" x1="44.2755" y1="67.9105" x2="85.877" y2="81.4826" gradientUnits="userSpaceOnUse">
<stop stop-color="white"/>
<stop offset="1" stop-color="white" stop-opacity="0"/>
</linearGradient>
<linearGradient id="paint3_linear_1_5534" x1="62.2733" y1="49.3227" x2="84.1067" y2="63.7799" gradientUnits="userSpaceOnUse">
<stop stop-color="white"/>
<stop offset="1" stop-color="white" stop-opacity="0"/>
</linearGradient>
</defs>
</svg>
